<svg xmlns="http://www.w3.org/2000/svg" viewBox="0 0 247.73046 178.18564"><path d="M123.605.248l-11.093 11-.094.094c-3.81 3.932-8.164 8.524-12.406 13.25-6.415 7.065-8.417 17.34-5.938 27.187l17.313-17.313c.41-.507.843-1 1.312-1.47l11-11 29.624 29.626c2.325-9.718.296-19.78-6.03-26.75-11.4-12.7-23.688-24.625-23.688-24.625zm.188 65.906c-3.695 3.38-7.49 6.69-10.188 9.094-.963.858-1.934 1.572-2.906 2.156 4.324 4.184 8.926 7.85 13.124 10.782 4.207-2.963 8.795-6.65 13.094-10.844-1.08-.618-2.15-1.39-3.22-2.344-2.627-2.342-6.3-5.554-9.905-8.844z" fill="#382a21"/></svg>