<svg xmlns="http://www.w3.org/2000/svg" viewBox="0 0 659.32306 174.0958"><g><path d="M138.895 81.857c-4.057-6.8-8.95-12.768-11.694-15.75l2.15-1.194-.837-1.91c-1.91-4.414-5.13-9.068-6.204-10.5C116.7 13.006 98.68 1.313 97.965.835L96.534 0 95.34 1.193C86.273 9.546 82.455 21 81.26 25.536c-4.653-.358-11.097-.716-11.455-.716h-.238c-.358 0-6.802.358-11.456.716-1.192-4.654-5.01-15.99-14.08-24.343L42.84 0l-1.432.835c-.716.478-18.734 12.17-24.462 51.668-1.074 1.432-4.176 6.086-6.205 10.5l-.836 1.91 2.148 1.193C9.427 69.09 4.415 75.056.477 81.856L0 82.694l.24.835c.357 1.193 7.516 28.28 18.255 47.014L21 134.838l1.79-5.61c4.058 6.445 12.65 18.616 24.344 25.895 1.43 3.34 8.114 17.064 22.194 18.973h.716c14.08-2.03 20.763-15.632 22.195-18.973 11.812-7.28 20.403-19.45 24.34-25.894l1.79 5.608 2.507-4.296c10.74-18.734 17.898-45.94 18.256-47.014l.24-.835-.478-.836zm-42.622 34.354l-1.79-5.488S84.1 130.77 67.753 140.434c0 0-6.085 16.347-20.762 18.376-14.676-2.03-20.76-18.376-20.76-18.376C9.88 130.77-.5 110.722-.5 110.722l-1.79 5.49c-10.74-18.735-18.018-46.538-18.018-46.538 5.608-9.546 13.245-17.54 13.245-17.54l-2.864-1.552c2.267-5.13 6.205-10.5 6.205-10.5C1.886.703 19.785-10.514 19.785-10.514c10.978 10.024 13.96 25.06 13.96 25.06 4.535-.48 13.246-.956 13.246-.956s8.593.36 13.246.956c0 0 2.984-15.035 13.96-25.06 0 0 17.9 11.218 23.51 50.595 0 0 4.056 5.49 6.203 10.502l-2.864 1.55s7.636 7.996 13.245 17.542c0 0-7.278 27.803-18.017 46.537z" fill="#a4a9ad"/><path d="M90.33 117.774c-5.012 9.666-7.04 13.126-13.484 13.365-6.325.237-5.61-3.104-5.61-3.104s7.757-1.79 7.877-13.484c0 0-3.46-4.057-9.308-4.057-5.847 0-9.307 4.057-9.307 4.057.12 11.694 7.875 13.484 7.875 13.484s.716 3.34-5.608 3.103c-6.324-.24-8.353-3.7-13.484-13.366-1.908-3.7-3.578-4.892-4.772-4.892 4.535 7.875 7.4 17.66 8.115 19.927.954 2.744 1.79 5.607 2.386 8.47 3.22 13.843 14.795 14.917 14.795 14.917s11.575-1.074 14.797-14.916c.716-3.1 1.67-6.204 2.625-9.067.835-2.984 3.7-12.052 7.875-19.33-1.312-.12-2.863 1.073-4.773 4.89zM33.94 77.836c.956-1.67 3.58-2.744 6.087-2.744 2.506 0 5.25 1.074 6.085 2.744C59.51 95.717 57.124 95 54.857 95s-4.773.717-6.086 1.91zm10.416 24.036c1.67 0 .716-4.177 6.324-4.177-.12 4.534-3.34 7.398-6.324 7.517-2.984-.12-6.205-2.983-6.325-7.518 5.61 0 4.655 4.176 6.326 4.176zm6.65 6.058c-4.534 1.55-3.937 2.387-7.636 2.506-3.7-.24-3.102-1.074-7.637-2.506-4.415-2.03-4.892-10.74-1.91-13.364-1.312 5.727 3.342 11.216 3.46 10.978.12-1.194 1.195-1.552 1.195-1.552 0-.12.835 3.34 5.01 3.46 4.178-.12 5.013-3.46 5.013-3.46s.956.358 1.194 1.552c0 .12 4.773-5.25 3.46-10.978 2.864 2.625 2.268 11.335-2.147 13.364z" fill="#0d2240"/><path d="M126.604 63.958c-2.267-5.13-6.205-10.5-6.205-10.5C114.79 13.96 96.772 2.744 96.772 2.744c-10.86 10.024-13.96 25.06-13.96 25.06-4.536-.478-13.246-.956-13.246-.956s-8.592.358-13.245.955c0 0-2.984-15.035-13.96-25.06 0 0-17.9 11.218-23.51 50.595 0 0-4.056 5.49-6.204 10.5l2.864 1.552S7.875 73.385 2.267 82.93c0 0 7.28 27.804 18.018 46.538l1.79-5.49s10.382 20.048 26.73 29.713c0 0 6.085 16.35 20.762 18.377C84.244 170.04 90.33 153.69 90.33 153.69c16.347-9.664 26.728-29.71 26.728-29.71l1.79 5.488c10.74-18.734 18.018-46.537 18.018-46.537-5.608-9.545-13.245-17.54-13.245-17.54l2.984-1.432zM44.267 13.41S67.598 8.615 76.786.5c0 0 13.84 9.546 17.54 38.9 0 0-2.625-6.8-6.8-16.228-4.178-9.427-10.263-17.42-10.263-17.42-3.103 4.89-3.46 11.573-3.46 11.573 4.415 6.205 6.204 12.052 6.204 12.052l-2.983-.358c2.03 3.817 2.983 10.38 2.983 10.38-8.352-8.71-17.54-13.245-17.54-13.245s3.7-.477 5.37-.477l-2.865-1.91zM34.676 10.164C37.116 13.446 39.86 28.6 39.86 28.6l-2.864 1.79c1.67 0 5.37.477 5.37.477s-9.07 4.654-17.542 13.245c0 0 .955-6.443 2.984-10.38l-2.864.357s1.79-5.848 6.205-12.053c0 0-.36-6.8-3.462-11.574 0 0-6.085 7.994-10.262 17.42-4.176 9.428-6.8 16.23-6.8 16.23 3.578-29.235 17.42-38.78 17.42-38.78zm91.536 79.3c-3.22 13.723-9.307 28.162-9.307 28.162l-1.79-4.415c-7.756 15.272-15.154 19.926-15.154 19.926 2.15-7.637 5.61-16.11 5.61-16.11-10.98 7.877-17.422 24.94-20.286 33.89-4.296 13.722-15.99 13.483-15.99 13.483s-11.574.357-15.99-13.484c-2.863-8.95-9.426-26.013-20.285-33.89 0 0 3.46 8.473 5.608 16.11 0 0-7.28-4.773-15.155-20.047l-1.55 4.534s-6.087-14.44-9.308-28.16l9.665-1.314-5.847-3.818 5.847-5.012s4.296.478 10.38 2.625c0 0 1.672 8.95 6.564 14.44 0 0-2.148-9.905-1.79-17.78 0 0 6.802-1.313 11.814-7.757l-1.79-.954s2.028-3.58 4.415-6.444c5.25 2.03 8.83 7.04 8.83 7.04 1.074 15.75-2.983 18.734-2.983 18.734-4.296-9.904-9.427-12.17-9.427-12.17l.955 3.102c-3.938-.597-7.757-.12-7.757-.12s.36 7.995 10.383 10.978c0 0-.24 6.086.954 11.575 0 0 4.415-7.04 11.813-12.292 0 0 .955-21.598 4.535-38.303 3.58 16.705 4.773 38.303 4.773 38.303 7.28 5.25 11.813 12.29 11.813 12.29 1.194-5.488.956-11.574.956-11.574 10.023-2.983 10.5-10.978 10.5-10.978s-3.818-.477-7.756.12l.955-3.103s-5.012 2.267-9.308 12.17c0 0-4.057-2.982-2.983-18.733 0 0 3.58-5.01 8.83-7.04 2.387 2.983 4.415 6.444 4.415 6.444l-1.79.835c4.892 6.562 11.813 7.755 11.813 7.755.358 7.876-1.79 17.78-1.79 17.78 4.892-5.49 6.563-14.44 6.563-14.44 6.085-2.147 10.38-2.624 10.38-2.624l5.848 5.013-5.847 3.818 9.665 1.433zM15.492 56.23c.477.12.954.12 1.193 0-.477-.596-.716-1.312-.955-2.028.955.358 2.03.835 3.103 1.67 0 0-.835 2.983-3.938 2.03-3.102-.956-2.267-4.416-2.267-4.416s.597 0 1.55.238c0 .358-.237 2.03 1.314 2.506zm52.16.638c1.672-.477 1.433-2.148 1.314-2.506.955-.238 1.55-.238 1.55-.238s.836 3.46-2.385 4.415c-3.222.955-3.938-2.028-3.938-2.028 1.074-.835 2.148-1.313 3.222-1.67-.24.596-.478 1.312-.955 2.028.358.12.716.12 1.193 0z" fill="#0d2240"/><path d="M41.764 15.99c3.102 4.892 3.46 11.574 3.46 11.574-4.415 6.205-6.205 12.052-6.205 12.052l2.863-.358c-2.028 3.818-2.983 10.38-2.983 10.38 8.353-8.71 17.54-13.244 17.54-13.244s-3.698-.477-5.37-.477l2.865-1.79S51.31 18.973 42.122 10.86c0 0-13.842 9.545-17.54 38.9 0 0 2.624-6.803 6.8-16.23 4.177-9.426 10.382-17.54 10.382-17.54z" fill="#fff"/><path d="M100.71 49.64s-.954-6.444-2.982-10.382l2.863.358s-1.79-5.847-6.204-12.052c0 0 .358-6.8 3.46-11.574 0 0 6.086 7.994 10.263 17.42 4.175 9.428 6.8 16.23 6.8 16.23-3.58-29.235-17.42-38.78-17.42-38.78-9.07 8.113-11.814 23.267-11.814 23.267l2.863 1.79c-1.67 0-5.37.477-5.37.477s9.188 4.654 17.54 13.245z" fill="#fff"/><path d="M47.014 79.83s-.835 3.46 2.267 4.414c3.223.954 3.94-2.03 3.94-2.03-1.075-.834-2.15-1.31-3.103-1.67.238.597.477 1.313.954 2.03-.357.12-.715.12-1.192 0-1.67-.478-1.432-2.15-1.313-2.507-.954-.238-1.55-.238-1.55-.238z" fill="#a4c7e2"/><path d="M86.153 82.096s.835 2.983 3.938 2.028c3.103-.954 2.387-4.415 2.387-4.415s-.596 0-1.55.238c.118.24.357 1.91-1.314 2.506-.477.12-.954.12-1.193 0 .477-.597.716-1.313.955-2.03-.955.36-2.148.837-3.222 1.672z" fill="#a4c7e2"/><path d="M69.686 143.07c2.983-.118 6.205-2.982 6.324-7.516-5.608 0-4.653 4.176-6.324 4.176-1.67 0-.716-4.176-6.324-4.176.12 4.534 3.34 7.398 6.324 7.517z" fill="#eb0029"/><path d="M75.772 115.984c-.955-1.67-3.58-2.744-6.086-2.744-2.506 0-5.25 1.074-6.086 2.744 1.432-1.193 3.938-1.91 6.086-1.91 2.267 0 4.773.717 6.086 1.91z" fill="#fff"/><path d="M75.772 147.248c-.12-1.194-1.194-1.552-1.194-1.552 0-.12-.835 3.34-5.01 3.46-4.178-.12-5.013-3.46-5.013-3.46s-.955.358-1.193 1.552c0 .12-4.773-5.25-3.46-10.978-3.103 2.744-2.506 11.336 1.91 13.364 4.533 1.55 4.056 2.387 7.635 2.506 3.7-.24 3.103-1.074 7.637-2.506 4.415-2.028 5.012-10.74 1.91-13.364 1.55 5.727-3.222 11.097-3.222 10.978z" fill="#fff"/><path d="M122.786 81.26l-5.847-5.01s-4.297.476-10.382 2.624c0 0-1.67 8.95-6.563 14.438 0 0 2.148-9.904 1.79-17.78 0 0-6.802-1.312-11.814-7.755l1.79-.835s-2.027-3.58-4.414-6.444c-5.25 2.03-8.83 7.04-8.83 7.04-1.193 15.632 2.864 18.615 2.864 18.615 4.296-9.904 9.307-12.17 9.307-12.17l-.954 3.1c3.937-.595 7.756-.118 7.756-.118s-.36 7.995-10.502 10.978c0 0 .24 6.085-.954 11.574 0 0-4.415-7.04-11.814-12.29 0 0-1.193-21.598-4.773-38.304-3.58 16.706-4.534 38.304-4.534 38.304-7.28 5.25-11.813 12.29-11.813 12.29-1.193-5.49-.955-11.574-.955-11.574-10.023-2.983-10.38-10.978-10.38-10.978s3.817-.477 7.755.12l-.955-3.103s5.012 2.267 9.427 12.17c0 0 4.057-2.982 2.983-18.733 0 0-3.58-5.013-8.83-7.04-2.386 2.982-4.415 6.442-4.415 6.442l1.79.836c-4.892 6.562-11.813 7.756-11.813 7.756-.24 7.994 1.91 17.898 1.91 17.898-4.893-5.488-6.564-14.438-6.564-14.438-6.085-2.148-10.38-2.625-10.38-2.625l-5.848 5.01 5.847 3.82-9.666 1.312c3.103 13.722 9.308 28.16 9.308 28.16l1.79-4.415c7.756 15.274 15.154 20.047 15.154 20.047-2.148-7.637-5.608-16.11-5.608-16.11 10.858 7.877 17.42 24.94 20.285 33.89 4.296 13.722 15.99 13.483 15.99 13.483s11.694.358 15.99-13.483c2.863-8.95 9.307-26.013 20.285-33.89 0 0-3.46 8.473-5.61 16.11 0 0 7.28-4.773 15.156-20.047l1.79 4.415s6.085-14.438 9.426-28.16l-9.784-1.313 5.608-3.82zm-55.764 37.673c-.955 2.863-1.91 5.966-2.625 9.068-3.222 13.843-14.797 14.917-14.797 14.917S38.145 141.843 34.804 128c-.716-2.982-1.55-5.846-2.387-8.47-.596-2.268-3.58-12.053-8.114-19.928 1.193 0 2.745 1.193 4.773 4.892 5.012 9.666 7.04 13.126 13.484 13.365 6.324.237 5.608-3.104 5.608-3.104s-7.756-1.79-7.875-13.484c0 0 3.46-4.057 9.307-4.057s9.308 4.057 9.308 4.057c-.12 11.694-7.876 13.484-7.876 13.484s-.716 3.34 5.608 3.103c6.325-.24 8.353-3.7 13.484-13.366 1.91-3.818 3.58-4.892 4.773-4.892-4.057 7.28-6.92 16.347-7.875 19.33z" fill="#fff"/><path fill="#a4a9ad" d="M114.433 134.6h.716v-.36h-1.672v.36h.716v1.67h.24z"/><path fill="#a4a9ad" d="M117.774 136.27v-2.03h-.596l-.597 1.433-.596-1.432h-.477v2.03h.358v-1.67l.716 1.67h.12l.716-1.67v1.67z"/></g><g><g fill="#fff"><path d="M153.315 147.61v-12.8h4.9v12.7c0 3.7 1.8 5.5 4.8 5.5s4.8-1.8 4.8-5.4v-12.9h4.9v12.7c0 6.8-3.8 10.1-9.8 10.1-5.9 0-9.6-3.3-9.6-9.9z"/><path d="M177.915 134.81h4.6l10.5 13.8v-13.8h4.9v22.4h-4.2l-10.9-14.3v14.3h-4.9v-22.4z"/><path d="M203.415 134.81h4.9v22.4h-4.9v-22.4z"/><path d="M212.015 134.81h5.4l5.9 15.8 5.9-15.8h5.3l-9.1 22.6h-4.4l-9-22.6z"/><path d="M238.015 134.81h16.9v4.4h-12v4.5h10.6v4.4h-10.6v4.7h12.2v4.4h-17.1v-22.4z"/><path d="M259.515 134.81h10.3c2.9 0 5.1.8 6.5 2.3 1.3 1.3 1.9 3 1.9 5.1v.1c0 3.6-2 5.9-4.8 7l5.5 8h-5.8l-4.8-7.2h-3.9v7.2h-4.9v-22.5zm-143.415 3.59c2.4 0 3.8-1.3 3.8-3.2v-.1c0-2.1-1.5-3.2-3.9-3.2h-4.9v6.4h5z"/><path d="M281.115 153.91l2.9-3.5c2 1.7 4.1 2.7 6.7 2.7 2 0 3.2-.8 3.2-2.1v-.1c0-1.3-.8-1.9-4.5-2.9-4.5-1.2-7.4-2.4-7.4-6.9v.1c0-4.1 3.3-6.8 7.9-6.8 3.3 0 6.1 1 8.3 2.9l-2.6 3.7c-2-1.4-3.9-2.2-5.8-2.2s-2.9.9-2.9 2v.1c0 1.5 1 2 4.8 2.9 4.6 1.2 7.1 2.8 7.1 6.7v.1c0 4.5-3.4 7-8.2 7-3.4-.1-6.8-1.3-9.5-3.7z"/><path d="M303.415 134.81h4.9v22.4h-4.9v-22.4z"/><path d="M319.215 139.31h-6.9v-4.5h18.6v4.5h-6.8v17.9h-4.9v-17.9z"/><path d="M341.015 148.31l-8.6-13.6h5.8l5.4 9 5.4-9h5.6l-8.6 13.5v8.9h-4.9v-8.8z"/><path d="M359.915 146.01c0-6.4 5-11.7 12-11.7 6.9 0 11.9 5.2 11.9 11.5v.1c0 6.4-5 11.6-12 11.6-7 .1-11.9-5.1-11.9-11.5zm-134.715-7.21c0-3.9-2.8-7.1-6.8-7.1s-6.7 3.1-6.7 7v.1c0 3.8 2.8 7.1 6.8 7.1 4-.1 6.7-3.2 6.7-7.1z"/><path d="M388.115 134.81h17.1v4.5h-12.1v4.8h10.7v4.5h-10.7v8.7h-4.9v-22.5z"/><path d="M413.915 146.01c0-6.4 4.8-11.7 11.7-11.7 4.2 0 6.8 1.4 8.8 3.5l-3.1 3.6c-1.7-1.6-3.5-2.5-5.7-2.5-3.8 0-6.5 3.1-6.5 7v.1c0 3.8 2.7 7.1 6.5 7.1 2.6 0 4.1-1 5.9-2.6l3.1 3.2c-2.3 2.5-4.9 4-9.2 4-6.6-.1-11.5-5.2-11.5-11.7z"/><path d="M436.915 146.01c0-6.4 5-11.7 12-11.7 6.9 0 11.9 5.2 11.9 11.5v.1c0 6.4-5 11.6-12 11.6-6.9.1-11.9-5.1-11.9-11.5zm-134.615-7.21c0-3.9-2.8-7.1-6.8-7.1s-6.7 3.1-6.7 7v.1c0 3.8 2.8 7.1 6.8 7.1 3.9-.1 6.7-3.2 6.7-7.1z"/><path d="M465.115 134.81h4.5l10.5 13.8v-13.8h4.9v22.4h-4.2l-10.9-14.3v14.3h-4.9v-22.4z"/><path d="M490.515 134.81h4.6l10.5 13.8v-13.8h4.9v22.4h-4.2l-11-14.3v14.3h-4.9v-22.4z"/><path d="M515.815 134.81h16.9v4.4h-12v4.5h10.6v4.4h-10.6v4.7h12.2v4.4h-17.1v-22.4z"/><path d="M536.315 146.01c0-6.4 4.8-11.7 11.7-11.7 4.2 0 6.8 1.4 8.8 3.5l-3.1 3.6c-1.7-1.6-3.5-2.5-5.7-2.5-3.8 0-6.5 3.1-6.5 7v.1c0 3.8 2.7 7.1 6.5 7.1 2.6 0 4.1-1 5.9-2.6l3.1 3.2c-2.3 2.5-4.9 4-9.2 4-6.6-.1-11.5-5.2-11.5-11.7z"/><path d="M566.115 139.31h-6.8v-4.5h18.6v4.5h-6.8v17.9h-4.9v-17.9z"/><path d="M581.915 134.81h4.9v22.4h-4.9v-22.4z"/><path d="M591.515 146.01c0-6.4 4.8-11.7 11.7-11.7 4.2 0 6.8 1.4 8.8 3.5l-3.1 3.6c-1.7-1.6-3.5-2.5-5.7-2.5-3.8 0-6.5 3.1-6.5 7v.1c0 3.8 2.7 7.1 6.5 7.1 2.6 0 4.1-1 5.9-2.6l3.1 3.2c-2.3 2.5-4.9 4-9.2 4-6.6-.1-11.5-5.2-11.5-11.7z"/><path d="M615.715 147.61v-12.8h4.9v12.7c0 3.7 1.8 5.5 4.8 5.5s4.8-1.8 4.8-5.4v-12.9h4.9v12.7c0 6.8-3.8 10.1-9.8 10.1-5.9 0-9.6-3.3-9.6-9.9z"/><path d="M645.615 139.31h-6.8v-4.5h18.5v4.5h-6.8v17.9h-4.9v-17.9z"/></g><g fill="#fff"><path d="M220.015 90.01c-6.8 2-13.8 4.5-22.2 4.5-8.5 0-15.4-2.5-22.2-4.5v-80h-22.3v91.1c12.1 7.1 27.6 11.5 44.5 11.5 16.8 0 32.4-4.3 44.5-11.5v-91.1h-22.3v80z"/><path d="M324.115 29.61v14.8h22.2v-25.9c-12-7.2-27.5-11.3-44.4-11.3-16.8 0-32.2 4.1-44.3 11.3v82.8c12.1 7 27.5 11.1 44.3 11.1 16.9 0 32.4-4.1 44.5-11.1v-30.2h-22.2v18.9c-6.6 2-13.8 3.1-22.2 3.1-8.5 0-15.4-1.2-22.1-3.1v-60.4c6.6-2 13.6-3.2 22.1-3.2 8.4 0 15.5 1.2 22.1 3.2z"/><path d="M362.115 18.31v83c12.1 7 27.6 11.1 44.5 11.1 16.8 0 32.4-4.1 44.5-11.1v-83c-12.1-7-27.5-11.1-44.5-11.1-16.7 0-32.3 4.1-44.5 11.1zm-86.515 64.49c-6.8 2-13.8 3.1-22.2 3.1-8.5 0-15.4-1.2-22.2-3.1V22.4c6.8-2.2 13.8-3.2 22.2-3.2 8.5 0 15.4 1.2 22.2 3.2v60.4z"/><path d="M554.315 10.01h-20.3v70.6h-.5l-44.1-70.6h-23.8v99.4h20.1v-70.5h.7l44.1 70.5h23.8z"/><path d="M657.315 10.01h-20.2v70.6h-.5l-44.2-70.6h-23.7v99.4h20.1v-70.5h.6l44.2 70.5h23.7z"/></g></g></svg>