<?xml version="1.0" encoding="UTF-8" standalone="no"?>



<svg
 xmlns:dc="http://purl.org/dc/elements/1.1/"

 xmlns:rdf="http://www.w3.org/1999/02/22-rdf-syntax-ns#"
 xmlns:svg="http://www.w3.org/2000/svg"
 xmlns="http://www.w3.org/2000/svg"
 version="1.1"
 width="100%"
 height="100%"
 viewBox="0 0 247.73046 178.18564"
 id="Layer_1"
 xml:space="preserve">
    <path
 d="m 123.60546,0.24814 -11.09375,11 c -0.0294,0.0303 -0.0643,0.0634 -0.0937,0.0937 -3.8113,3.93245 -8.164,8.52398 -12.40625,13.25 -6.41466,7.06542 -8.41721,17.34138 -5.9375,27.1875 l 17.3125,-17.3125 c 0.41165,-0.50655 0.84371,-0.99996 1.3125,-1.46875 l 11,-11 29.625,29.625 c 2.32483,-9.71812 0.29588,-19.78099 -6.03125,-26.75 -11.4,-12.7 -23.6875,-24.625 -23.6875,-24.625 z m 0.1875,65.90625 c -3.69518,3.38084 -7.49014,6.69065 -10.1875,9.09375 -0.963,0.85806 -1.93404,1.57176 -2.90625,2.15625 4.32451,4.18385 8.92663,7.84933 13.125,10.78125 4.2066,-2.96293 8.79523,-6.64819 13.09375,-10.84375 -1.08,-0.61744 -2.14948,-1.39101 -3.21875,-2.34375 -2.62859,-2.34183 -6.30066,-5.55398 -9.90625,-8.84375 z"
   id="path3021-7"
   style="fill:#382a21;fill-opacity:1;stroke:none" />
</svg>