<svg xmlns="http://www.w3.org/2000/svg" viewBox="0 0 247.73046 178.18564"><path d="M123.73.186S111.443 12.08 100.043 24.78c-6.9 7.6-8.713 18.906-5.313 29.406 5.4 16.6 23.7 31.3 35 38 17.1 10.1 35-6 35-6v92h16v-98l55 55 12-12-124-123zm0 22l43 43s-17.4 23.9-33 10c-5.5-4.9-15.6-13.5-20-19-8.2-10.3-6.2-17.8-1-23l11-11z" fill="#958b7f"/><path d="M124 0L0 123l12 12 55-55v98h16V86s17.9 16.1 35 6c11.3-6.7 29.6-21.4 35-38 3.4-10.5 1.587-21.806-5.313-29.406C136.287 11.894 124 0 124 0zm0 22l11 11c5.2 5.2 7.2 12.7-1 23-4.4 5.5-14.5 14.1-20 19-15.6 13.9-33-10-33-10l43-43z" fill="#5f4b40"/><path d="M123.605.248l-11.093 11-.094.094c-3.81 3.932-8.164 8.524-12.406 13.25-6.415 7.065-8.417 17.34-5.938 27.187l17.313-17.313c.41-.507.843-1 1.312-1.47l11-11 29.624 29.626c2.325-9.718.296-19.78-6.03-26.75-11.4-12.7-23.688-24.625-23.688-24.625zm.188 65.906c-3.695 3.38-7.49 6.69-10.188 9.094-.963.858-1.934 1.572-2.906 2.156 4.324 4.184 8.926 7.85 13.124 10.782 4.207-2.963 8.795-6.65 13.094-10.844-1.08-.618-2.15-1.39-3.22-2.344-2.627-2.342-6.3-5.554-9.905-8.844z" fill="#382a21"/></svg>