<?xml version="1.0" encoding="UTF-8" standalone="no"?>
<!-- Created with Inkscape (http://www.inkscape.org/) -->

<svg
 xmlns:dc="http://purl.org/dc/elements/1.1/"
   xmlns:cc="http://creativecommons.org/ns#"
   xmlns:rdf="http://www.w3.org/1999/02/22-rdf-syntax-ns#"
   xmlns:svg="http://www.w3.org/2000/svg"
   xmlns="http://www.w3.org/2000/svg"
   version="1.1"
   width="97.552162"
   height="174.70561"
   id="svg2996">
  <defs
     id="defs2998" />
  <metadata
     id="metadata3001">
    <rdf:RDF>
      <cc:Work
         rdf:about="">
        <dc:format>image/svg+xml</dc:format>
        <dc:type
           rdf:resource="http://purl.org/dc/dcmitype/StillImage" />
        <dc:title></dc:title>
      </cc:Work>
    </rdf:RDF>
  </metadata>
  <g
     transform="translate(-306.5128,-410.48325)"
     id="layer1">
    <path
 d="m 306.96867,410.53266 -0.45587,174.6562 16.97054,-0.0244 -0.11189,-77.78166 69.39608,69.1967 11.29743,-11.32997 -65.14734,-64.96017 c 0,0 24.03978,-1.30738 28.96185,-20.54778 3.23438,-12.73259 5.74639,-36.07076 -2.19557,-51.6157 -5.0346,-9.82155 -14.32061,-16.52129 -24.57435,-17.0015 -17.04257,-0.89474 -34.14088,-0.59171 -34.14088,-0.59171 z m 15.57872,15.53395 15.55631,-0.0224 c 7.35392,-0.0106 14.07701,3.86885 15.58075,16.94818 0.78789,6.99923 -0.25399,20.22363 -0.66743,27.57814 -1.17208,20.86137 -30.38217,16.30719 -30.38217,16.30719 l -0.0875,-60.81112 z"
       id="path3021" style="fill: #181310; fill-opacity: 0.80" />
  </g>
</svg>
