<?xml version="1.0" encoding="UTF-8" standalone="no"?>
<!-- Created with Inkscape (http://www.inkscape.org/) -->

<svg
 class="r_right"  xmlns:dc="http://purl.org/dc/elements/1.1/"
   xmlns:cc="http://creativecommons.org/ns#"
   xmlns:rdf="http://www.w3.org/1999/02/22-rdf-syntax-ns#"
   xmlns:svg="http://www.w3.org/2000/svg"
   xmlns="http://www.w3.org/2000/svg"
   version="1.1"
   width="97.509628"
   height="174.7229"
   id="svg3022">
  <defs
     id="defs3024" />
  <metadata
     id="metadata3027">
    <rdf:RDF>
      <cc:Work
         rdf:about="">
        <dc:format>image/svg+xml</dc:format>
        <dc:type
           rdf:resource="http://purl.org/dc/dcmitype/StillImage" />
        <dc:title></dc:title>
      </cc:Work>
    </rdf:RDF>
  </metadata>
  <g
     transform="translate(-332.85154,-370.75849)"
     id="layer1">
    <path
       d="m 332.9368,370.82462 c 0,0 17.09763,-0.3393 34.14207,0.51926 10.25474,0.45847 19.55494,7.13849 24.61036,16.94934 7.97494,15.52805 5.51245,38.87149 2.30509,51.61092 -4.88123,19.2508 -28.91818,20.60918 -28.91818,20.60918 l 65.28503,64.8218 -11.27336,11.35392 -69.54275,-69.04931 0.27694,77.78126 -16.97046,0.0604 0.0853,-174.65679 z m 15.61164,15.50087 0.21651,60.81079 c 0,0 29.21969,4.49219 30.3475,-16.37161 0.39808,-7.35537 1.41165,-20.58196 0.60891,-27.5795 -1.53149,-13.07611 -8.2628,-16.94125 -15.61667,-16.91507 l -15.55625,0.0554 z"
       id="path3009" style="fill: #5f4b40; fill-opacity: 0.6"
 />
  </g>
</svg>
